STARTFONT 2.1
FONT -FontForge-Ubuntu-Book-R-Normal--26-250-75-75-P-136-ISO10646-1
SIZE 25 75 75
FONTBOUNDINGBOX 25 25 -2 -5
COMMENT "Generated by fontforge, http://fontforge.sourceforge.net"
COMMENT "Copyright 2011 Canonical Ltd.  Licensed under the Ubuntu Font Licence 1.0"
STARTPROPERTIES 39
FOUNDRY "FontForge"
FAMILY_NAME "Ubuntu"
WEIGHT_NAME "Book"
SLANT "R"
SETWIDTH_NAME "Normal"
ADD_STYLE_NAME ""
PIXEL_SIZE 26
POINT_SIZE 250
RESOLUTION_X 75
RESOLUTION_Y 75
SPACING "P"
AVERAGE_WIDTH 136
CHARSET_REGISTRY "ISO10646"
CHARSET_ENCODING "1"
FONTNAME_REGISTRY ""
CHARSET_COLLECTIONS "ISO10646-1"
FONT_NAME "Ubuntu"
FACE_NAME "Ubuntu"
COPYRIGHT "Copyright 2011 Canonical Ltd.  Licensed under the Ubuntu Font Licence 1.0"
FONT_VERSION "0.83"
FONT_ASCENT 21
FONT_DESCENT 5
UNDERLINE_POSITION -4
UNDERLINE_THICKNESS 3
X_HEIGHT 13
CAP_HEIGHT 17
RAW_ASCENT 800
RAW_DESCENT 200
RELATIVE_WEIGHT 40
RELATIVE_SETWIDTH 50
SUPERSCRIPT_X 0
SUPERSCRIPT_Y 12
SUPERSCRIPT_SIZE 16
SUBSCRIPT_X 0
SUBSCRIPT_Y 3
SUBSCRIPT_SIZE 16
FIGURE_WIDTH 15
AVG_LOWERCASE_WIDTH 130
AVG_UPPERCASE_WIDTH 163
ENDPROPERTIES
CHARS 95
STARTCHAR exclam
ENCODING 33
SWIDTH 276 0
DWIDTH 7 0
BBX 2 18 2 0
BITMAP
C0
C0
C0
C0
C0
C0
C0
C0
C0
C0
C0
C0
80
00
00
C0
C0
C0
ENDCHAR
STARTCHAR quotedbl
ENCODING 34
SWIDTH 418 0
DWIDTH 11 0
BBX 7 7 2 13
BITMAP
C6
C6
C6
C6
C4
C4
C4
ENDCHAR
STARTCHAR numbersign
ENCODING 35
SWIDTH 667 0
DWIDTH 17 0
BBX 15 18 1 0
BITMAP
0C0C
0C0C
0C0C
1818
1818
FFFE
FFFE
1818
1818
3030
3030
FFFE
FFFE
3030
3030
6060
6060
6060
ENDCHAR
STARTCHAR dollar
ENCODING 36
SWIDTH 564 0
DWIDTH 15 0
BBX 11 23 2 -3
BITMAP
0600
0600
0600
1F80
7FC0
E040
C000
C000
E000
7800
3C00
0F00
0380
00C0
0060
0060
0060
C0E0
FFC0
7F80
0600
0600
0600
ENDCHAR
STARTCHAR percent
ENCODING 37
SWIDTH 858 0
DWIDTH 22 0
BBX 20 18 1 0
BITMAP
3C0300
7E0600
E70E00
C30C00
C31C00
C31800
C33000
E73000
7E63C0
3C67E0
00CE70
00CC30
018C30
038C30
030C30
070E70
0607E0
0C03C0
ENDCHAR
STARTCHAR ampersand
ENCODING 38
SWIDTH 666 0
DWIDTH 17 0
BBX 15 18 1 0
BITMAP
0F80
1FC0
38E0
3060
3060
30E0
19C0
1F80
1E00
3F06
7386
E1CC
C0CC
C078
C030
7078
7FEC
1F86
ENDCHAR
STARTCHAR quotesingle
ENCODING 39
SWIDTH 241 0
DWIDTH 6 0
BBX 2 7 2 13
BITMAP
C0
C0
C0
C0
C0
C0
C0
ENDCHAR
STARTCHAR parenleft
ENCODING 40
SWIDTH 324 0
DWIDTH 8 0
BBX 6 25 2 -5
BITMAP
04
0C
18
10
30
20
60
60
C0
C0
C0
C0
C0
C0
C0
C0
C0
60
60
20
30
10
18
0C
04
ENDCHAR
STARTCHAR parenright
ENCODING 41
SWIDTH 324 0
DWIDTH 8 0
BBX 6 25 0 -5
BITMAP
80
C0
60
20
30
10
18
18
0C
0C
0C
0C
0C
0C
0C
0C
0C
18
18
10
30
20
60
C0
80
ENDCHAR
STARTCHAR asterisk
ENCODING 42
SWIDTH 480 0
DWIDTH 12 0
BBX 11 10 1 8
BITMAP
0E00
0E00
4E40
F5E0
7FC0
0E00
1B00
1B80
39C0
1080
ENDCHAR
STARTCHAR plus
ENCODING 43
SWIDTH 564 0
DWIDTH 15 0
BBX 12 12 1 2
BITMAP
0600
0600
0600
0600
0600
FFF0
FFF0
0600
0600
0600
0600
0600
ENDCHAR
STARTCHAR comma
ENCODING 44
SWIDTH 246 0
DWIDTH 6 0
BBX 3 7 1 -4
BITMAP
60
60
60
60
40
C0
80
ENDCHAR
STARTCHAR hyphen
ENCODING 45
SWIDTH 299 0
DWIDTH 8 0
BBX 6 2 1 7
BITMAP
FC
FC
ENDCHAR
STARTCHAR period
ENCODING 46
SWIDTH 246 0
DWIDTH 6 0
BBX 3 3 1 0
BITMAP
E0
E0
E0
ENDCHAR
STARTCHAR slash
ENCODING 47
SWIDTH 384 0
DWIDTH 10 0
BBX 12 25 -1 -5
BITMAP
0030
0060
0060
0060
00C0
00C0
0180
0180
0180
0300
0300
0600
0600
0600
0C00
0C00
1800
1800
1800
3000
3000
6000
6000
6000
C000
ENDCHAR
STARTCHAR zero
ENCODING 48
SWIDTH 564 0
DWIDTH 15 0
BBX 13 18 1 0
BITMAP
0F80
3FE0
38E0
6030
6030
C018
C018
C018
C018
C018
C018
C018
C018
6030
6030
30E0
3FE0
0F80
ENDCHAR
STARTCHAR one
ENCODING 49
SWIDTH 564 0
DWIDTH 15 0
BBX 7 18 2 0
BITMAP
06
0E
1E
7E
F6
46
06
06
06
06
06
06
06
06
06
06
06
06
ENDCHAR
STARTCHAR two
ENCODING 50
SWIDTH 564 0
DWIDTH 15 0
BBX 11 18 2 0
BITMAP
3E00
7F80
E180
00C0
00C0
00C0
01C0
0180
0300
0600
0C00
1800
3800
7000
6000
C000
FFE0
FFE0
ENDCHAR
STARTCHAR three
ENCODING 51
SWIDTH 564 0
DWIDTH 15 0
BBX 12 18 1 0
BITMAP
3F00
FFC0
40E0
0060
0060
0060
01C0
1F80
1F80
01E0
0060
0030
0030
0030
0070
C0E0
FFC0
7F00
ENDCHAR
STARTCHAR four
ENCODING 52
SWIDTH 564 0
DWIDTH 15 0
BBX 13 18 1 0
BITMAP
00E0
01E0
03E0
03E0
0760
0C60
1C60
3860
3060
6060
C060
FFF8
FFF8
0060
0060
0060
0060
0060
ENDCHAR
STARTCHAR five
ENCODING 53
SWIDTH 564 0
DWIDTH 15 0
BBX 11 18 2 0
BITMAP
3FC0
3FC0
3000
3000
3000
3000
3000
7E00
7F80
03C0
00E0
0060
0060
0060
0060
C1C0
FF80
7F00
ENDCHAR
STARTCHAR six
ENCODING 54
SWIDTH 564 0
DWIDTH 15 0
BBX 12 18 2 0
BITMAP
01E0
07E0
1E00
3800
3000
6000
6000
DF80
FFC0
E0E0
C070
C030
C030
C030
6070
70E0
3FC0
1F80
ENDCHAR
STARTCHAR seven
ENCODING 55
SWIDTH 564 0
DWIDTH 15 0
BBX 11 18 2 0
BITMAP
FFE0
FFE0
0060
00C0
0180
0180
0300
0300
0600
0600
0600
0C00
0C00
0C00
1800
1800
1800
1800
ENDCHAR
STARTCHAR eight
ENCODING 56
SWIDTH 564 0
DWIDTH 15 0
BBX 13 18 1 0
BITMAP
1FC0
3FF0
7070
C018
C018
C018
7030
7CE0
1FC0
39E0
6070
C038
C018
C018
C038
7070
3FE0
1FC0
ENDCHAR
STARTCHAR nine
ENCODING 57
SWIDTH 564 0
DWIDTH 15 0
BBX 12 18 1 0
BITMAP
1F00
3FC0
70E0
E060
C030
C030
C030
C030
7070
7FF0
1FB0
0060
0060
00E0
01C0
0780
7F00
7800
ENDCHAR
STARTCHAR colon
ENCODING 58
SWIDTH 246 0
DWIDTH 6 0
BBX 3 13 1 0
BITMAP
E0
E0
E0
00
00
00
00
00
00
00
E0
E0
E0
ENDCHAR
STARTCHAR semicolon
ENCODING 59
SWIDTH 246 0
DWIDTH 6 0
BBX 3 17 1 -4
BITMAP
E0
E0
E0
00
00
00
00
00
00
00
60
60
60
60
40
C0
80
ENDCHAR
STARTCHAR less
ENCODING 60
SWIDTH 564 0
DWIDTH 15 0
BBX 13 11 1 2
BITMAP
0010
00F8
07E0
1F00
FC00
E000
FC00
1F00
07E0
00F8
0010
ENDCHAR
STARTCHAR equal
ENCODING 61
SWIDTH 564 0
DWIDTH 15 0
BBX 12 7 2 5
BITMAP
FFF0
FFF0
0000
0000
0000
FFF0
FFF0
ENDCHAR
STARTCHAR greater
ENCODING 62
SWIDTH 564 0
DWIDTH 15 0
BBX 13 11 1 2
BITMAP
4000
F800
3F00
07C0
01F8
0038
01F8
07C0
3F00
F800
4000
ENDCHAR
STARTCHAR question
ENCODING 63
SWIDTH 404 0
DWIDTH 11 0
BBX 9 18 1 0
BITMAP
7E00
FF00
0380
0180
0180
0180
0300
0700
0E00
0C00
1800
1800
1800
0000
0000
1800
1800
1800
ENDCHAR
STARTCHAR at
ENCODING 64
SWIDTH 950 0
DWIDTH 25 0
BBX 21 22 2 -4
BITMAP
01FC00
07FF00
1F03C0
3C00E0
300060
70FC30
61FE30
E38618
C70618
C60618
C60618
C60618
C60618
C70630
E38670
61FFE0
60FBC0
300000
3C0000
1F0000
07FE00
01FE00
ENDCHAR
STARTCHAR A
ENCODING 65
SWIDTH 663 0
DWIDTH 17 0
BBX 17 18 0 0
BITMAP
008000
01C000
01C000
036000
036000
063000
063000
0E3000
0C1800
0C1800
180C00
1FFC00
3FFE00
300600
700600
600300
600300
C00180
ENDCHAR
STARTCHAR B
ENCODING 66
SWIDTH 643 0
DWIDTH 17 0
BBX 14 18 2 0
BITMAP
FF80
FFE0
C070
C038
C018
C018
C038
C070
FFE0
FFF0
C038
C00C
C00C
C00C
C01C
C078
FFF0
FFC0
ENDCHAR
STARTCHAR C
ENCODING 67
SWIDTH 620 0
DWIDTH 16 0
BBX 13 18 2 0
BITMAP
07E0
1FF8
3C18
7000
6000
E000
C000
C000
C000
C000
C000
C000
E000
6000
7000
3818
1FF8
07E0
ENDCHAR
STARTCHAR D
ENCODING 68
SWIDTH 713 0
DWIDTH 19 0
BBX 15 18 2 0
BITMAP
FF80
FFE0
C0F8
C018
C00C
C00C
C006
C006
C006
C006
C006
C006
C00C
C00C
C018
C070
FFE0
FF80
ENDCHAR
STARTCHAR E
ENCODING 69
SWIDTH 571 0
DWIDTH 15 0
BBX 12 18 2 0
BITMAP
FFE0
FFE0
C000
C000
C000
C000
C000
C000
FFC0
FFC0
C000
C000
C000
C000
C000
C000
FFF0
FFF0
ENDCHAR
STARTCHAR F
ENCODING 70
SWIDTH 537 0
DWIDTH 14 0
BBX 11 18 2 0
BITMAP
FFE0
FFE0
C000
C000
C000
C000
C000
C000
FFC0
FFC0
C000
C000
C000
C000
C000
C000
C000
C000
ENDCHAR
STARTCHAR G
ENCODING 71
SWIDTH 672 0
DWIDTH 17 0
BBX 13 18 2 0
BITMAP
07E0
1FF8
3810
7000
6000
E000
C000
C000
C000
C018
C018
C018
E018
6018
7018
3818
1FF8
07F0
ENDCHAR
STARTCHAR H
ENCODING 72
SWIDTH 705 0
DWIDTH 18 0
BBX 14 18 2 0
BITMAP
C00C
C00C
C00C
C00C
C00C
C00C
C00C
C00C
FFFC
FFFC
C00C
C00C
C00C
C00C
C00C
C00C
C00C
C00C
ENDCHAR
STARTCHAR I
ENCODING 73
SWIDTH 269 0
DWIDTH 6 0
BBX 2 18 2 0
BITMAP
C0
C0
C0
C0
C0
C0
C0
C0
C0
C0
C0
C0
C0
C0
C0
C0
C0
C0
ENDCHAR
STARTCHAR J
ENCODING 74
SWIDTH 500 0
DWIDTH 13 0
BBX 11 18 0 0
BITMAP
0060
0060
0060
0060
0060
0060
0060
0060
0060
0060
0060
0060
0060
0060
00E0
41C0
FF80
3F00
ENDCHAR
STARTCHAR K
ENCODING 75
SWIDTH 629 0
DWIDTH 16 0
BBX 14 18 2 0
BITMAP
C030
C060
C0C0
C180
C300
C600
CC00
D800
F000
F800
DE00
CF00
C380
C1C0
C0E0
C070
C038
C01C
ENDCHAR
STARTCHAR L
ENCODING 76
SWIDTH 519 0
DWIDTH 14 0
BBX 12 18 2 0
BITMAP
C000
C000
C000
C000
C000
C000
C000
C000
C000
C000
C000
C000
C000
C000
C000
C000
FFF0
FFF0
ENDCHAR
STARTCHAR M
ENCODING 77
SWIDTH 871 0
DWIDTH 22 0
BBX 18 18 2 0
BITMAP
600180
700380
700380
780780
780780
6C0D80
4C0C80
C61880
C618C0
C330C0
C330C0
C1E0C0
C1E0C0
C1E0C0
C0C0C0
C000C0
C000C0
C000C0
ENDCHAR
STARTCHAR N
ENCODING 78
SWIDTH 728 0
DWIDTH 19 0
BBX 15 18 2 0
BITMAP
8006
E006
F006
F806
D806
CC06
C606
C306
C186
C0C6
C0E6
C076
C036
C01E
C00E
C006
C002
C002
ENDCHAR
STARTCHAR O
ENCODING 79
SWIDTH 778 0
DWIDTH 20 0
BBX 16 18 2 0
BITMAP
07E0
1FF8
3C3C
700E
6006
E006
C003
C003
C003
C003
C003
C003
E007
6006
700E
381C
1FF8
07E0
ENDCHAR
STARTCHAR P
ENCODING 80
SWIDTH 608 0
DWIDTH 16 0
BBX 13 18 2 0
BITMAP
FF80
FFE0
C070
C038
C018
C018
C018
C038
C070
FFE0
FF80
C000
C000
C000
C000
C000
C000
C000
ENDCHAR
STARTCHAR Q
ENCODING 81
SWIDTH 778 0
DWIDTH 20 0
BBX 16 23 2 -5
BITMAP
07E0
1FF8
3C3C
700E
6006
E006
C003
C003
C003
C003
C003
C003
E006
6006
700C
381C
1FF0
07C0
0180
01C0
00F0
007C
000C
ENDCHAR
STARTCHAR R
ENCODING 82
SWIDTH 629 0
DWIDTH 16 0
BBX 14 18 2 0
BITMAP
FF80
FFE0
C070
C038
C018
C018
C018
C038
C070
FFE0
FF80
C0C0
C0E0
C070
C030
C018
C01C
C00C
ENDCHAR
STARTCHAR S
ENCODING 83
SWIDTH 532 0
DWIDTH 14 0
BBX 12 18 1 0
BITMAP
1FC0
7FE0
E040
C000
C000
C000
E000
7800
1E00
0780
01E0
0060
0030
0030
0030
C070
FFE0
3F80
ENDCHAR
STARTCHAR T
ENCODING 84
SWIDTH 565 0
DWIDTH 14 0
BBX 14 18 0 0
BITMAP
FFFC
FFFC
0300
0300
0300
0300
0300
0300
0300
0300
0300
0300
0300
0300
0300
0300
0300
0300
ENDCHAR
STARTCHAR U
ENCODING 85
SWIDTH 688 0
DWIDTH 18 0
BBX 14 18 2 0
BITMAP
C00C
C00C
C00C
C00C
C00C
C00C
C00C
C00C
C00C
C00C
C00C
C00C
C00C
C01C
6018
7878
3FF0
0FC0
ENDCHAR
STARTCHAR V
ENCODING 86
SWIDTH 656 0
DWIDTH 16 0
BBX 16 18 0 0
BITMAP
C003
E007
6006
6006
300C
300C
300C
1818
1818
1C38
0C30
0C30
0660
0660
07E0
03C0
03C0
0180
ENDCHAR
STARTCHAR W
ENCODING 87
SWIDTH 929 0
DWIDTH 23 0
BBX 21 18 1 0
BITMAP
C00018
C00018
C06038
606030
607030
607030
60D030
70D870
30D860
318860
318C60
398CE0
1B06C0
1B06C0
1B06C0
1E03C0
0E0380
0E0180
ENDCHAR
STARTCHAR X
ENCODING 88
SWIDTH 631 0
DWIDTH 16 0
BBX 14 18 1 0
BITMAP
C00C
6018
3030
3030
1860
0CC0
0CC0
0780
0300
0300
0780
0CC0
1CE0
1860
3030
7038
6018
C00C
ENDCHAR
STARTCHAR Y
ENCODING 89
SWIDTH 598 0
DWIDTH 14 0
BBX 14 18 0 0
BITMAP
C00C
6018
6018
3030
3030
1860
1860
0CC0
0780
0780
0300
0300
0300
0300
0300
0300
0300
0300
ENDCHAR
STARTCHAR Z
ENCODING 90
SWIDTH 573 0
DWIDTH 15 0
BBX 13 18 1 0
BITMAP
FFF8
FFF8
0018
0030
0060
00C0
0180
0300
0200
0600
0C00
1800
3000
3000
6000
C000
FFF8
FFF8
ENDCHAR
STARTCHAR bracketleft
ENCODING 91
SWIDTH 329 0
DWIDTH 9 0
BBX 6 25 3 -5
BITMAP
FC
FC
C0
C0
C0
C0
C0
C0
C0
C0
C0
C0
C0
C0
C0
C0
C0
C0
C0
C0
C0
C0
C0
FC
FC
ENDCHAR
STARTCHAR backslash
ENCODING 92
SWIDTH 384 0
DWIDTH 10 0
BBX 12 25 -1 -5
BITMAP
C000
6000
6000
6000
3000
3000
1800
1800
1800
0C00
0C00
0600
0600
0600
0300
0300
0180
0180
0180
00C0
00C0
0060
0060
0060
0030
ENDCHAR
STARTCHAR bracketright
ENCODING 93
SWIDTH 329 0
DWIDTH 9 0
BBX 6 25 0 -5
BITMAP
FC
FC
0C
0C
0C
0C
0C
0C
0C
0C
0C
0C
0C
0C
0C
0C
0C
0C
0C
0C
0C
0C
0C
FC
FC
ENDCHAR
STARTCHAR asciicircum
ENCODING 94
SWIDTH 564 0
DWIDTH 15 0
BBX 13 10 1 8
BITMAP
0700
0F80
0F80
1DC0
3DE0
38E0
7070
7070
E038
4010
ENDCHAR
STARTCHAR underscore
ENCODING 95
SWIDTH 492 0
DWIDTH 13 0
BBX 13 2 0 -5
BITMAP
FFF8
FFF8
ENDCHAR
STARTCHAR grave
ENCODING 96
SWIDTH 376 0
DWIDTH 10 0
BBX 5 5 2 15
BITMAP
40
E0
70
38
10
ENDCHAR
STARTCHAR a
ENCODING 97
SWIDTH 522 0
DWIDTH 14 0
BBX 11 14 1 0
BITMAP
7F00
7FC0
00C0
0060
0060
0060
1FE0
7FE0
E060
C060
C060
E060
7FE0
3FE0
ENDCHAR
STARTCHAR b
ENCODING 98
SWIDTH 589 0
DWIDTH 15 0
BBX 12 20 2 0
BITMAP
C000
C000
C000
C000
C000
C000
DF00
FFC0
E0E0
C060
C030
C030
C030
C030
C030
C070
C060
C1E0
FFC0
7F00
ENDCHAR
STARTCHAR c
ENCODING 99
SWIDTH 465 0
DWIDTH 12 0
BBX 10 14 1 0
BITMAP
0FC0
3FC0
7000
6000
C000
C000
C000
C000
C000
C000
6000
7040
3FC0
0FC0
ENDCHAR
STARTCHAR d
ENCODING 100
SWIDTH 589 0
DWIDTH 15 0
BBX 12 20 1 0
BITMAP
0030
0030
0030
0030
0030
0030
0FB0
3FF0
7070
6030
C030
C030
C030
C030
C030
C030
6030
7830
3FF0
0FE0
ENDCHAR
STARTCHAR e
ENCODING 101
SWIDTH 559 0
DWIDTH 15 0
BBX 13 14 1 0
BITMAP
0FC0
3FE0
7070
6030
C018
C018
FFF8
FFF8
C000
C000
6000
7010
3FF0
0FE0
ENDCHAR
STARTCHAR f
ENCODING 102
SWIDTH 386 0
DWIDTH 10 0
BBX 8 20 2 0
BITMAP
1F
7F
60
C0
C0
C0
FE
FE
C0
C0
C0
C0
C0
C0
C0
C0
C0
C0
C0
C0
ENDCHAR
STARTCHAR g
ENCODING 103
SWIDTH 578 0
DWIDTH 15 0
BBX 12 19 1 -5
BITMAP
0FE0
3FF0
7030
6030
C030
C030
C030
C030
C030
6030
7070
3FF0
0FB0
0030
0030
0070
40E0
7FC0
3F80
ENDCHAR
STARTCHAR h
ENCODING 104
SWIDTH 571 0
DWIDTH 15 0
BBX 11 20 2 0
BITMAP
C000
C000
C000
C000
C000
C000
FF00
FFC0
C1C0
C0E0
C060
C060
C060
C060
C060
C060
C060
C060
C060
C060
ENDCHAR
STARTCHAR i
ENCODING 105
SWIDTH 253 0
DWIDTH 6 0
BBX 2 19 2 0
BITMAP
C0
C0
00
00
00
C0
C0
C0
C0
C0
C0
C0
C0
C0
C0
C0
C0
C0
C0
ENDCHAR
STARTCHAR j
ENCODING 106
SWIDTH 253 0
DWIDTH 6 0
BBX 6 24 -2 -5
BITMAP
0C
0C
00
00
00
0C
0C
0C
0C
0C
0C
0C
0C
0C
0C
0C
0C
0C
0C
0C
0C
1C
F8
F0
ENDCHAR
STARTCHAR k
ENCODING 107
SWIDTH 522 0
DWIDTH 14 0
BBX 12 20 2 0
BITMAP
C000
C000
C000
C000
C000
C000
C0C0
C180
C300
C600
CC00
D800
F000
FC00
CE00
C700
C380
C1C0
C0E0
C070
ENDCHAR
STARTCHAR l
ENCODING 108
SWIDTH 273 0
DWIDTH 7 0
BBX 4 20 2 0
BITMAP
C0
C0
C0
C0
C0
C0
C0
C0
C0
C0
C0
C0
C0
C0
C0
C0
C0
C0
F0
70
ENDCHAR
STARTCHAR m
ENCODING 109
SWIDTH 861 0
DWIDTH 22 0
BBX 18 14 2 0
BITMAP
7F1F00
FFFF80
C1C180
C0C1C0
C0C0C0
C0C0C0
C0C0C0
C0C0C0
C0C0C0
C0C0C0
C0C0C0
C0C0C0
C0C0C0
C0C0C0
ENDCHAR
STARTCHAR n
ENCODING 110
SWIDTH 574 0
DWIDTH 15 0
BBX 11 14 2 0
BITMAP
7F00
FFC0
C1C0
C0E0
C060
C060
C060
C060
C060
C060
C060
C060
C060
C060
ENDCHAR
STARTCHAR o
ENCODING 111
SWIDTH 590 0
DWIDTH 15 0
BBX 13 14 1 0
BITMAP
0F80
3FE0
7070
6030
C038
C018
C018
C018
C018
C038
6030
7070
3FE0
0F80
ENDCHAR
STARTCHAR p
ENCODING 112
SWIDTH 589 0
DWIDTH 15 0
BBX 12 19 2 -5
BITMAP
7F00
FFC0
C1E0
C060
C070
C030
C030
C030
C030
C030
C060
E0E0
FFC0
DF00
C000
C000
C000
C000
C000
ENDCHAR
STARTCHAR q
ENCODING 113
SWIDTH 589 0
DWIDTH 15 0
BBX 12 19 1 -5
BITMAP
0FE0
3FF0
7830
6030
C030
C030
C030
C030
C030
C030
6030
7070
3FF0
0FB0
0030
0030
0030
0030
0030
ENDCHAR
STARTCHAR r
ENCODING 114
SWIDTH 386 0
DWIDTH 10 0
BBX 8 14 2 0
BITMAP
7F
FF
C0
C0
C0
C0
C0
C0
C0
C0
C0
C0
C0
C0
ENDCHAR
STARTCHAR s
ENCODING 115
SWIDTH 446 0
DWIDTH 12 0
BBX 10 14 1 0
BITMAP
3F80
7F80
E080
C000
C000
F000
7E00
1F80
03C0
00C0
00C0
81C0
FF80
7F00
ENDCHAR
STARTCHAR t
ENCODING 116
SWIDTH 402 0
DWIDTH 10 0
BBX 8 18 2 0
BITMAP
C0
C0
C0
C0
FE
FE
C0
C0
C0
C0
C0
C0
C0
C0
C0
E1
7F
3F
ENDCHAR
STARTCHAR u
ENCODING 117
SWIDTH 574 0
DWIDTH 15 0
BBX 11 14 2 0
BITMAP
C060
C060
C060
C060
C060
C060
C060
C060
C060
C060
E060
7060
7FE0
1FC0
ENDCHAR
STARTCHAR v
ENCODING 118
SWIDTH 502 0
DWIDTH 12 0
BBX 12 14 0 0
BITMAP
C030
E070
6060
6060
6060
30C0
30C0
39C0
1980
1980
0F00
0F00
0F00
0600
ENDCHAR
STARTCHAR w
ENCODING 119
SWIDTH 777 0
DWIDTH 19 0
BBX 19 14 0 0
BITMAP
C0C060
C0C060
60E0C0
60E0C0
61A0C0
71B1C0
31B180
31B180
3B1B80
1B1B00
1B1B00
1F0F00
0E0E00
0E0E00
ENDCHAR
STARTCHAR x
ENCODING 120
SWIDTH 511 0
DWIDTH 13 0
BBX 13 14 0 0
BITMAP
E038
6030
3060
18C0
1DC0
0D80
0700
0700
0D80
1DC0
38E0
3060
6030
E038
ENDCHAR
STARTCHAR y
ENCODING 121
SWIDTH 497 0
DWIDTH 12 0
BBX 12 19 0 -5
BITMAP
C030
6070
6060
6060
30E0
30C0
18C0
19C0
1980
0D80
0D80
0F00
0700
0700
0600
0600
0C00
FC00
F000
ENDCHAR
STARTCHAR z
ENCODING 122
SWIDTH 471 0
DWIDTH 12 0
BBX 10 14 1 0
BITMAP
FFC0
FFC0
01C0
0380
0300
0600
0C00
1800
3800
3000
6000
E000
FFC0
FFC0
ENDCHAR
STARTCHAR braceleft
ENCODING 123
SWIDTH 333 0
DWIDTH 9 0
BBX 7 25 1 -5
BITMAP
0E
1E
38
30
30
30
30
30
30
30
30
60
C0
E0
70
30
30
30
30
30
30
30
38
1E
0E
ENDCHAR
STARTCHAR bar
ENCODING 124
SWIDTH 279 0
DWIDTH 7 0
BBX 2 25 2 -5
BITMAP
C0
C0
C0
C0
C0
C0
C0
C0
C0
C0
C0
C0
C0
C0
C0
C0
C0
C0
C0
C0
C0
C0
C0
C0
C0
ENDCHAR
STARTCHAR braceright
ENCODING 125
SWIDTH 333 0
DWIDTH 9 0
BBX 7 25 1 -5
BITMAP
E0
F0
38
18
18
18
18
18
18
18
18
0C
06
0E
1C
18
18
18
18
18
18
18
38
F0
E0
ENDCHAR
STARTCHAR asciitilde
ENCODING 126
SWIDTH 564 0
DWIDTH 15 0
BBX 12 4 1 6
BITMAP
3830
7E70
E7E0
C1C0
ENDCHAR
STARTCHAR ordmasculine
ENCODING 186
SWIDTH 446 0
DWIDTH 12 0
BBX 10 9 1 9
BITMAP
1E00
7F80
E1C0
C0C0
C0C0
C0C0
E1C0
7F80
1E00
ENDCHAR
ENDFONT
